<?xml version="1.0" encoding="utf-8"?>
<!-- Generator: Adobe Illustrator 27.0.0, SVG Export Plug-In . SVG Version: 6.00 Build 0)  -->
<svg version="1.1" id="Livello_1" xmlns="http://www.w3.org/2000/svg" xmlns:xlink="http://www.w3.org/1999/xlink" x="0px" y="0px"
	 viewBox="0 0 29.1 28" style="enable-background:new 0 0 29.1 28;" xml:space="preserve">
<style type="text/css">
	.st0{fill:#00DF6B;}
	.st1{fill:#001632;}
</style>
<g>
	<path class="st0" d="M13,21.7l-1.9,1.9c-0.2,0.2-0.5,0.3-0.8,0.3c-0.3,0-0.6-0.1-0.8-0.3l-9.1-8.8C0.1,14.6,0,14.3,0,14
		c0-0.3,0.1-0.6,0.3-0.8l9.2-8.8c0.2-0.2,0.5-0.3,0.8-0.3c0.3,0,0.6,0.1,0.8,0.3l1.9,1.9c0.2,0.2,0.3,0.5,0.3,0.8
		c0,0.3-0.1,0.6-0.3,0.8L12.8,8l-5.4,5.2c-0.2,0.2-0.3,0.5-0.3,0.8s0.1,0.6,0.3,0.8l5.6,5.4c0.1,0.1,0.2,0.2,0.2,0.4
		c0.1,0.1,0.1,0.3,0.1,0.4c0,0.1,0,0.3-0.1,0.4C13.2,21.5,13.1,21.6,13,21.7z"/>
	<path class="st1" d="M11.8,25.8l1.9,1.8c0.2,0.2,0.5,0.3,0.8,0.3c0.3,0,0.6-0.1,0.8-0.3l0.1-0.1l13.4-12.9c0.1-0.1,0.2-0.2,0.2-0.4
		c0.1-0.1,0.1-0.3,0.1-0.4s0-0.3-0.1-0.4c-0.1-0.1-0.1-0.3-0.2-0.4L15.4,0.3c-0.1-0.1-0.2-0.2-0.4-0.2C14.9,0,14.8,0,14.6,0
		c-0.1,0-0.3,0-0.4,0.1c-0.1,0.1-0.3,0.1-0.4,0.2l-1.9,1.8c-0.2,0.2-0.3,0.5-0.3,0.8s0.1,0.6,0.3,0.8l9.6,9.2l0.3,0.3
		c0.1,0.1,0.2,0.2,0.2,0.4c0.1,0.1,0.1,0.3,0.1,0.4c0,0.1,0,0.3-0.1,0.4c-0.1,0.1-0.1,0.3-0.2,0.4l-9.9,9.6
		c-0.1,0.1-0.2,0.2-0.2,0.4c-0.1,0.1-0.1,0.3-0.1,0.4c0,0.1,0,0.3,0.1,0.4C11.6,25.6,11.7,25.7,11.8,25.8z"/>
</g>
</svg>
